<?xml version="1.0" encoding="UTF-8"?>
<svg width="90" height="100" fill="none" version="1.1" viewBox="0 0 90 100" xmlns="http://www.w3.org/2000/svg">
 <g clip-path="url(#clip0_9_104)" fill="#fefefe">
  <path d="m22.638 56.62c0 1.6152-0.6854 2.4162-2.0496 2.4162-0.4548 0-0.8041-0.139-1.0413-0.4236-0.2439-0.2847-0.4548-0.7084-0.6393-1.271l-5.5822-17.139c-0.4547-1.3703-1.2456-2.4295-2.366-3.1842-1.127-0.7547-2.3923-1.132-3.8159-1.132-1.0149 0-1.964 0.1589-2.8273 0.4833-0.86995 0.3243-1.6279 0.7811-2.2671 1.3703-0.63928 0.5891-1.1467 1.3107-1.5026 2.1581-0.36248 0.8473-0.54042 1.7807-0.54042 2.8002v21.051h5.1801v-20.561c0-1.6152 0.68542-2.4162 2.0496-2.4162 0.45475 0 0.81063 0.1522 1.0611 0.4634 0.25703 0.3111 0.46134 0.748 0.61951 1.3107l5.5426 17.099c0.4547 1.3703 1.2456 2.4427 2.366 3.204 1.127 0.7679 2.4055 1.1519 3.8554 1.1519 0.9886 0 1.9179-0.1589 2.7878-0.4833 0.87-0.3244 1.6279-0.7878 2.2671-1.3902 0.6393-0.6024 1.1534-1.3239 1.5225-2.1581 0.3756-0.8341 0.5601-1.7741 0.5601-2.82v-21.17h-5.1801v20.647-0.0066z"/>
  <path d="m47.742 63.836v-22.905h6.7751v-4.8789h-18.414v4.8789h6.8212v22.905h4.8176z"/>
  <path d="m84.82 35.972v20.647c0 1.6152-0.6854 2.4162-2.0497 2.4162-0.4547 0-0.804-0.139-1.0413-0.4236-0.2438-0.2847-0.4547-0.7084-0.6392-1.271l-5.5822-17.139c-0.4547-1.3703-1.2456-2.4295-2.366-3.1842-1.127-0.7547-2.3923-1.132-3.8159-1.132-1.0149 0-1.964 0.1589-2.8273 0.4833-0.87 0.3243-1.6279 0.7811-2.2672 1.3703-0.6392 0.5891-1.1467 1.3107-1.5026 2.1581-0.3625 0.8473-0.5404 1.7807-0.5404 2.8002v21.051h5.1801v-20.561c0-1.6152 0.6854-2.4162 2.0497-2.4162 0.4547 0 0.8106 0.1522 1.0611 0.4634 0.257 0.3111 0.4613 0.748 0.6195 1.3107l5.5426 17.099c0.4547 1.3703 1.2456 2.4427 2.366 3.204 1.1269 0.7679 2.4055 1.1519 3.8554 1.1519 0.9886 0 1.9179-0.1589 2.7878-0.4833 0.87-0.3244 1.6279-0.7878 2.2671-1.3902 0.6393-0.6024 1.1534-1.3239 1.5224-2.1581 0.3757-0.8341 0.5602-1.7741 0.5602-2.82v-21.17h-5.1801v-0.0066z"/>
  <path d="m53.864 20.727c0 1.6152-0.6854 2.4162-2.0496 2.4162-0.4548 0-0.8041-0.139-1.0413-0.4237-0.2439-0.2846-0.4548-0.7083-0.6393-1.271l-5.5822-17.139c-0.4547-1.3703-1.2456-2.4295-2.3659-3.1842-1.127-0.75467-2.3924-1.132-3.816-1.132-1.0149 0-1.9639 0.15888-2.8273 0.48325-0.8699 0.32438-1.6278 0.78115-2.2671 1.3703s-1.1468 1.3107-1.5027 2.1581c-0.3624 0.84735-0.5404 1.7808-0.5404 2.8002v21.051h5.1802v-20.561c0-1.6153 0.6854-2.4163 2.0496-2.4163 0.4548 0 0.8106 0.15225 1.0611 0.46339 0.257 0.31113 0.4613 0.74805 0.6195 1.3107l5.5426 17.099c0.4548 1.3703 1.2456 2.4427 2.366 3.204 1.127 0.7679 2.4055 1.1518 3.8555 1.1518 0.9885 0 1.9178-0.1588 2.7877-0.4832 0.87-0.3244 1.6279-0.7878 2.2672-1.3902s1.1533-1.324 1.5224-2.1581c0.3756-0.8341 0.5602-1.7741 0.5602-2.82v-21.177h-5.1802v20.647z"/>
  <path d="m53.864 92.625c0 1.6153-0.6854 2.4163-2.0496 2.4163-0.4548 0-0.8041-0.139-1.0413-0.4237-0.2439-0.2846-0.4548-0.7083-0.6393-1.271l-5.5822-17.139c-0.4547-1.3703-1.2456-2.4295-2.3659-3.1841-1.127-0.7547-2.3924-1.132-3.816-1.132-1.0149 0-1.9639 0.1588-2.8273 0.4832-0.8699 0.3244-1.6278 0.7812-2.2671 1.3703-0.6393 0.5892-1.1468 1.3108-1.5027 2.1581-0.3624 0.8474-0.5404 1.7808-0.5404 2.8002v21.051h5.1802v-20.561c0-1.6153 0.6854-2.4163 2.0496-2.4163 0.4548 0 0.8106 0.1523 1.0611 0.4634 0.257 0.3112 0.4613 0.7481 0.6195 1.3108l5.5426 17.099c0.4548 1.3704 1.2456 2.4428 2.366 3.2041 1.127 0.7679 2.4055 1.1522 3.8555 1.1522 0.9885 0 1.9178-0.1593 2.7877-0.4836 0.87-0.3244 1.6279-0.7878 2.2672-1.3902s1.1533-1.324 1.5224-2.1581c0.3756-0.8341 0.5602-1.7741 0.5602-2.8201v-21.17h-5.1802v20.648-0.0067z"/>
 </g>
 <defs>
  <clipPath id="clip0_9_104">
   <rect width="90" height="100" fill="#fff"/>
  </clipPath>
 </defs>
</svg>
