<svg width="90" height="100" viewBox="0 0 90 100" fill="none" xmlns="http://www.w3.org/2000/svg">
<g clip-path="url(#clip0_9_104)">
<path d="M22.6384 56.6199C22.6384 58.2351 21.953 59.0361 20.5888 59.0361C20.134 59.0361 19.7847 58.8971 19.5475 58.6125C19.3036 58.3278 19.0927 57.9041 18.9082 57.3415L13.326 40.2026C12.8713 38.8323 12.0804 37.7731 10.96 37.0184C9.83304 36.2637 8.56766 35.8864 7.14411 35.8864C6.12918 35.8864 5.18014 36.0453 4.31679 36.3697C3.44684 36.694 2.68893 37.1508 2.04965 37.74C1.41037 38.3291 0.902901 39.0507 0.547014 39.8981C0.184536 40.7454 0.0065918 41.6788 0.0065918 42.6983V63.7495H5.18673V43.1881C5.18673 41.5729 5.87215 40.7719 7.23638 40.7719C7.69113 40.7719 8.04701 40.9241 8.29745 41.2353C8.55448 41.5464 8.75879 41.9833 8.91696 42.546L14.4596 59.6452C14.9143 61.0155 15.7052 62.0879 16.8256 62.8492C17.9526 63.6171 19.2311 64.0011 20.681 64.0011C21.6696 64.0011 22.5989 63.8422 23.4688 63.5178C24.3388 63.1934 25.0967 62.73 25.7359 62.1276C26.3752 61.5252 26.8893 60.8037 27.2584 59.9695C27.634 59.1354 27.8185 58.1954 27.8185 57.1495V35.9791H22.6384V56.6265V56.6199Z" fill="black"/>
<path d="M47.7416 63.8356V40.9308H54.1674H54.5167V36.0519H54.1674H54.1081H36.1028V40.9308H42.924V63.8356H47.7416Z" fill="black"/>
<path d="M84.8198 35.9725V56.6199C84.8198 58.2351 84.1344 59.0361 82.7701 59.0361C82.3154 59.0361 81.9661 58.8971 81.7288 58.6125C81.485 58.3278 81.2741 57.9041 81.0896 57.3415L75.5074 40.2026C75.0527 38.8323 74.2618 37.7731 73.1414 37.0184C72.0144 36.2637 70.7491 35.8864 69.3255 35.8864C68.3106 35.8864 67.3615 36.0453 66.4982 36.3697C65.6282 36.694 64.8703 37.1508 64.231 37.74C63.5918 38.3291 63.0843 39.0507 62.7284 39.8981C62.3659 40.7454 62.188 41.6788 62.188 42.6983V63.7495H67.3681V43.1881C67.3681 41.5729 68.0535 40.7719 69.4178 40.7719C69.8725 40.7719 70.2284 40.9241 70.4789 41.2353C70.7359 41.5464 70.9402 41.9833 71.0984 42.546L76.641 59.6452C77.0957 61.0155 77.8866 62.0879 79.007 62.8492C80.1339 63.6171 81.4125 64.0011 82.8624 64.0011C83.851 64.0011 84.7803 63.8422 85.6502 63.5178C86.5202 63.1934 87.2781 62.73 87.9173 62.1276C88.5566 61.5252 89.0707 60.8037 89.4397 59.9695C89.8154 59.1354 89.9999 58.1954 89.9999 57.1495V35.9791H84.8198V35.9725Z" fill="black"/>
<path d="M53.8642 20.7269C53.8642 22.3421 53.1788 23.1431 51.8146 23.1431C51.3598 23.1431 51.0105 23.0041 50.7733 22.7194C50.5294 22.4348 50.3185 22.0111 50.134 21.4484L44.5518 4.30955C44.0971 2.93923 43.3062 1.88005 42.1859 1.12538C41.0589 0.370714 39.7935 -0.00661945 38.3699 -0.00661945C37.355 -0.00661945 36.406 0.152258 35.5426 0.476632C34.6727 0.801007 33.9148 1.25778 33.2755 1.84695C32.6362 2.43612 32.1287 3.15769 31.7728 4.00503C31.4104 4.85238 31.2324 5.78578 31.2324 6.80524V27.8565H36.4126V7.29512C36.4126 5.67986 37.098 4.87886 38.4622 4.87886C38.917 4.87886 39.2728 5.03111 39.5233 5.34225C39.7803 5.65338 39.9846 6.0903 40.1428 6.65299L45.6854 23.7522C46.1402 25.1225 46.931 26.1949 48.0514 26.9562C49.1784 27.7241 50.4569 28.108 51.9069 28.108C52.8954 28.108 53.8247 27.9492 54.6946 27.6248C55.5646 27.3004 56.3225 26.837 56.9618 26.2346C57.6011 25.6322 58.1151 24.9106 58.4842 24.0765C58.8598 23.2424 59.0444 22.3024 59.0444 21.2565V0.0794391H53.8642V20.7269Z" fill="black"/>
<path d="M53.8642 92.6254C53.8642 94.2407 53.1788 95.0417 51.8146 95.0417C51.3598 95.0417 51.0105 94.9027 50.7733 94.618C50.5294 94.3334 50.3185 93.9097 50.134 93.347L44.5518 76.2081C44.0971 74.8378 43.3062 73.7786 42.1859 73.024C41.0589 72.2693 39.7935 71.892 38.3699 71.892C37.355 71.892 36.406 72.0508 35.5426 72.3752C34.6727 72.6996 33.9148 73.1564 33.2755 73.7455C32.6362 74.3347 32.1287 75.0563 31.7728 75.9036C31.4104 76.751 31.2324 77.6844 31.2324 78.7038V99.7551H36.4126V79.1937C36.4126 77.5784 37.098 76.7774 38.4622 76.7774C38.917 76.7774 39.2728 76.9297 39.5233 77.2408C39.7803 77.552 39.9846 77.9889 40.1428 78.5516L45.6854 95.6507C46.1402 97.0211 46.931 98.0935 48.0514 98.8548C49.1784 99.6227 50.4569 100.007 51.9069 100.007C52.8954 100.007 53.8247 99.8477 54.6946 99.5234C55.5646 99.199 56.3225 98.7356 56.9618 98.1332C57.6011 97.5308 58.1151 96.8092 58.4842 95.9751C58.8598 95.141 59.0444 94.201 59.0444 93.155V71.9846H53.8642V92.6321V92.6254Z" fill="black"/>
</g>
<defs>
<clipPath id="clip0_9_104">
<rect width="90" height="100" fill="white"/>
</clipPath>
</defs>
</svg>
